<svg version="1.1" xmlns="http://www.w3.org/2000/svg" viewBox="0 0 810 94.651">
    <g>
        <path fill="#c00000"
            d="M 566.8 42.551 L 567 50.151 A 98.444 98.444 0 0 0 562.795 49.651 Q 558.613 49.25 555.3 49.351 Q 551.813 49.458 549.225 50.033 A 18.015 18.015 0 0 0 547.275 50.576 Q 545.018 51.353 543.621 52.494 A 6.918 6.918 0 0 0 542.675 53.426 Q 541.2 55.201 541.2 57.501 A 8.044 8.044 0 0 0 541.533 59.875 A 6.183 6.183 0 0 0 543.775 63.051 A 8.849 8.849 0 0 0 546.666 64.467 Q 548.495 65.001 550.85 65.001 A 18.181 18.181 0 0 0 554.715 64.606 A 14.759 14.759 0 0 0 557.75 63.601 A 12.253 12.253 0 0 0 561.064 61.402 A 11.105 11.105 0 0 0 562.575 59.651 A 9.905 9.905 0 0 0 564.293 54.862 A 12.538 12.538 0 0 0 564.35 53.651 L 564.35 40.501 A 13.081 13.081 0 0 0 564.042 37.6 A 10.07 10.07 0 0 0 562.95 34.776 A 8.956 8.956 0 0 0 559.877 31.643 A 11.482 11.482 0 0 0 558.7 31.001 A 13.003 13.003 0 0 0 555.775 30.043 Q 553.891 29.651 551.6 29.651 Q 547.7 29.651 543.9 30.826 Q 540.1 32.001 536.65 34.501 L 533.55 26.401 A 31.847 31.847 0 0 1 540.905 22.662 A 28.99 28.99 0 0 1 543.25 21.951 A 41.535 41.535 0 0 1 549.406 20.834 A 35.06 35.06 0 0 1 552.95 20.651 A 36.85 36.85 0 0 1 558.23 21.01 Q 561.172 21.436 563.654 22.369 A 21.432 21.432 0 0 1 564.775 22.826 A 16.779 16.779 0 0 1 570.364 26.74 A 16.122 16.122 0 0 1 572.35 29.376 A 17.351 17.351 0 0 1 574.378 34.493 Q 574.883 36.676 574.978 39.212 A 31.861 31.861 0 0 1 575 40.401 L 575 72.151 L 565.1 72.151 L 565.1 66.301 A 15.315 15.315 0 0 1 559.877 70.911 A 19.143 19.143 0 0 1 558.15 71.751 A 23.675 23.675 0 0 1 551.373 73.484 A 29.35 29.35 0 0 1 548.2 73.651 A 23.34 23.34 0 0 1 543.504 73.199 A 17.936 17.936 0 0 1 539.15 71.726 Q 535.25 69.801 533.075 66.276 A 14.461 14.461 0 0 1 531.112 60.827 A 18.83 18.83 0 0 1 530.9 57.951 Q 530.9 53.901 532.95 50.626 A 13.194 13.194 0 0 1 535.976 47.298 Q 537.342 46.214 539.09 45.319 A 22.798 22.798 0 0 1 539.325 45.201 A 24.135 24.135 0 0 1 543.248 43.689 Q 545.226 43.106 547.545 42.72 A 49.697 49.697 0 0 1 550.45 42.326 A 55.408 55.408 0 0 1 554.279 42.058 Q 557.665 41.934 561.605 42.147 A 115.856 115.856 0 0 1 566.8 42.551 Z" />
        <path fill="#c00000"
            d=" M 626.95 72.151 L 615.95 72.151 L 615.95 0.151 L 626.95 0.151 L 626.95 42.751 L 646.45 22.651 L 659.45 22.651 L 641.95 41.601 L 662 72.151 L 648.85 72.151 L 633.95 48.751 L 626.95 55.851 L 626.95 72.151 Z" />
        <path fill="#191919"
            d=" M 403.4 72.151 L 392.4 72.151 L 392.4 22.651 L 403.4 22.651 L 403.4 28.951 A 20.713 20.713 0 0 1 406.746 25.385 A 16.557 16.557 0 0 1 410.6 22.976 Q 414.7 21.151 419.1 21.151 A 28.305 28.305 0 0 1 423.87 21.531 Q 427.569 22.164 430.35 23.851 A 18.435 18.435 0 0 1 434.784 27.547 A 16.362 16.362 0 0 1 436.975 30.801 A 19.346 19.346 0 0 1 439.046 37.594 A 18.374 18.374 0 0 1 439.15 39.551 L 439.15 72.151 L 428.15 72.151 L 428.15 42.951 A 14.337 14.337 0 0 0 427.685 39.201 A 10.514 10.514 0 0 0 424.975 34.451 Q 421.8 31.251 416.15 31.251 A 14.146 14.146 0 0 0 412.35 31.745 A 12.005 12.005 0 0 0 409.575 32.901 Q 406.7 34.551 405.05 37.476 A 12.696 12.696 0 0 0 403.565 41.931 A 16.469 16.469 0 0 0 403.4 44.301 L 403.4 72.151 Z" />
        <path fill="#c00000"
            d=" M 709.05 72.151 L 698.05 72.151 L 698.05 22.651 L 709.05 22.651 L 709.05 28.951 A 20.713 20.713 0 0 1 712.396 25.385 A 16.557 16.557 0 0 1 716.25 22.976 Q 720.35 21.151 724.75 21.151 A 28.305 28.305 0 0 1 729.52 21.531 Q 733.219 22.164 736 23.851 A 18.435 18.435 0 0 1 740.434 27.547 A 16.362 16.362 0 0 1 742.625 30.801 A 19.346 19.346 0 0 1 744.696 37.594 A 18.374 18.374 0 0 1 744.8 39.551 L 744.8 72.151 L 733.8 72.151 L 733.8 42.951 A 14.337 14.337 0 0 0 733.335 39.201 A 10.514 10.514 0 0 0 730.625 34.451 Q 727.45 31.251 721.8 31.251 A 14.146 14.146 0 0 0 718 31.745 A 12.005 12.005 0 0 0 715.225 32.901 Q 712.35 34.551 710.7 37.476 A 12.696 12.696 0 0 0 709.215 41.931 A 16.469 16.469 0 0 0 709.05 44.301 L 709.05 72.151 Z" />
        <path fill="#c00000"
            d=" M 504.4 72.151 L 493.2 72.151 L 493.2 12.401 L 473.5 12.401 L 473.5 2.151 L 524.1 2.151 L 524.1 12.401 L 504.4 12.401 L 504.4 72.151 Z" />
        <path fill="#c00000"
            d=" M 107.75 49.851 L 68.25 49.851 A 18.317 18.317 0 0 0 68.245 50.263 Q 68.245 52.425 68.765 54.315 A 12.679 12.679 0 0 0 70.2 57.626 A 13.456 13.456 0 0 0 75.146 62.315 A 16.501 16.501 0 0 0 76.075 62.801 A 17.987 17.987 0 0 0 80.813 64.297 A 24.727 24.727 0 0 0 85.1 64.651 Q 89.3 64.651 93.225 63.376 Q 97.15 62.101 100.35 59.601 L 104.6 67.501 A 20.252 20.252 0 0 1 101.444 69.589 A 26.322 26.322 0 0 1 98.8 70.826 Q 95.4 72.201 91.7 72.926 A 38.429 38.429 0 0 1 86.291 73.606 A 33.774 33.774 0 0 1 84.55 73.651 A 33.108 33.108 0 0 1 77.147 72.858 A 26.147 26.147 0 0 1 70.5 70.376 Q 64.45 67.101 61.075 61.201 A 25.471 25.471 0 0 1 57.982 51.852 A 32.61 32.61 0 0 1 57.7 47.501 A 29.162 29.162 0 0 1 58.58 40.237 A 25.756 25.756 0 0 1 59.65 36.976 Q 61.6 32.151 65.15 28.601 Q 68.7 25.051 73.475 23.101 A 26.576 26.576 0 0 1 81.812 21.22 A 31.393 31.393 0 0 1 83.9 21.151 A 29.802 29.802 0 0 1 89.713 21.695 A 23.489 23.489 0 0 1 94.85 23.326 Q 99.65 25.501 102.825 29.401 A 23.058 23.058 0 0 1 107.06 37.558 A 26.852 26.852 0 0 1 107.325 38.526 A 26.31 26.31 0 0 1 108.111 44.62 Q 108.149 47.149 107.75 49.851 Z" />
        <path fill="#c00000"
            d=" M 217.6 49.851 L 178.1 49.851 A 18.317 18.317 0 0 0 178.095 50.263 Q 178.095 52.425 178.615 54.315 A 12.679 12.679 0 0 0 180.05 57.626 A 13.456 13.456 0 0 0 184.996 62.315 A 16.501 16.501 0 0 0 185.925 62.801 A 17.987 17.987 0 0 0 190.663 64.297 A 24.727 24.727 0 0 0 194.95 64.651 Q 199.15 64.651 203.075 63.376 Q 207 62.101 210.2 59.601 L 214.45 67.501 A 20.252 20.252 0 0 1 211.294 69.589 A 26.322 26.322 0 0 1 208.65 70.826 Q 205.25 72.201 201.55 72.926 A 38.429 38.429 0 0 1 196.141 73.606 A 33.774 33.774 0 0 1 194.4 73.651 A 33.108 33.108 0 0 1 186.997 72.858 A 26.147 26.147 0 0 1 180.35 70.376 Q 174.3 67.101 170.925 61.201 A 25.471 25.471 0 0 1 167.832 51.852 A 32.61 32.61 0 0 1 167.55 47.501 A 29.162 29.162 0 0 1 168.43 40.237 A 25.756 25.756 0 0 1 169.5 36.976 Q 171.45 32.151 175 28.601 Q 178.55 25.051 183.325 23.101 A 26.576 26.576 0 0 1 191.662 21.22 A 31.393 31.393 0 0 1 193.75 21.151 A 29.802 29.802 0 0 1 199.563 21.695 A 23.489 23.489 0 0 1 204.7 23.326 Q 209.5 25.501 212.675 29.401 A 23.058 23.058 0 0 1 216.91 37.558 A 26.852 26.852 0 0 1 217.175 38.526 A 26.31 26.31 0 0 1 217.961 44.62 Q 217.999 47.149 217.6 49.851 Z" />
        <path fill="#c00000"
            d=" M 327 49.851 L 287.5 49.851 A 18.317 18.317 0 0 0 287.495 50.263 Q 287.495 52.425 288.015 54.315 A 12.679 12.679 0 0 0 289.45 57.626 A 13.456 13.456 0 0 0 294.396 62.315 A 16.501 16.501 0 0 0 295.325 62.801 A 17.987 17.987 0 0 0 300.063 64.297 A 24.727 24.727 0 0 0 304.35 64.651 Q 308.55 64.651 312.475 63.376 Q 316.4 62.101 319.6 59.601 L 323.85 67.501 A 20.252 20.252 0 0 1 320.694 69.589 A 26.322 26.322 0 0 1 318.05 70.826 Q 314.65 72.201 310.95 72.926 A 38.429 38.429 0 0 1 305.541 73.606 A 33.774 33.774 0 0 1 303.8 73.651 A 33.108 33.108 0 0 1 296.397 72.858 A 26.147 26.147 0 0 1 289.75 70.376 Q 283.7 67.101 280.325 61.201 A 25.471 25.471 0 0 1 277.232 51.852 A 32.61 32.61 0 0 1 276.95 47.501 A 29.162 29.162 0 0 1 277.83 40.237 A 25.756 25.756 0 0 1 278.9 36.976 Q 280.85 32.151 284.4 28.601 Q 287.95 25.051 292.725 23.101 A 26.576 26.576 0 0 1 301.062 21.22 A 31.393 31.393 0 0 1 303.15 21.151 A 29.802 29.802 0 0 1 308.963 21.695 A 23.489 23.489 0 0 1 314.1 23.326 Q 318.9 25.501 322.075 29.401 A 23.058 23.058 0 0 1 326.31 37.558 A 26.852 26.852 0 0 1 326.575 38.526 A 26.31 26.31 0 0 1 327.361 44.62 Q 327.399 47.149 327 49.851 Z" />
        <path fill="#c00000"
            d=" M 25.15 72.151 L 0 72.151 L 0 2.151 L 24.05 2.151 Q 32.189 2.151 37.802 5.086 A 20.442 20.442 0 0 1 40.3 6.626 A 14.542 14.542 0 0 1 46.333 17.06 A 21.747 21.747 0 0 1 46.5 19.801 Q 46.5 23.151 44.925 26.126 Q 43.35 29.101 40.85 31.351 Q 38.35 33.601 35.65 34.651 Q 41.35 36.401 45.175 41.051 A 16.686 16.686 0 0 1 48.842 49.827 A 22.053 22.053 0 0 1 49 52.501 A 19.359 19.359 0 0 1 48.044 58.668 A 17.244 17.244 0 0 1 46.1 62.676 A 18.78 18.78 0 0 1 40.073 68.43 A 23.513 23.513 0 0 1 37.85 69.626 A 25.478 25.478 0 0 1 31.4 71.633 Q 28.572 72.135 25.358 72.151 A 42.534 42.534 0 0 1 25.15 72.151 Z" />
        <path fill="#c00000"
            d=" M 253.95 72.151 L 241.35 72.151 L 222.85 22.651 L 234.9 22.651 L 248.6 62.701 L 246.95 62.701 L 260.4 22.651 L 272.1 22.651 L 253.95 72.151 Z" />
        <path fill="#c00000"
            d=" M 778.4 50.901 L 780.8 55.701 Q 777.7 55.651 775.525 56.176 A 13.1 13.1 0 0 0 774.162 56.579 Q 773.5 56.818 772.967 57.108 A 5.682 5.682 0 0 0 772.175 57.626 A 3.496 3.496 0 0 0 771.494 58.323 A 2.552 2.552 0 0 0 771 59.851 A 2.324 2.324 0 0 0 771.986 61.801 Q 772.386 62.102 772.95 62.326 Q 774.9 63.101 778.45 63.401 L 786.95 64.051 Q 792.156 64.468 796.096 65.613 A 29.689 29.689 0 0 1 797.625 66.101 Q 801.592 67.491 803.912 69.885 A 11.569 11.569 0 0 1 804.425 70.451 Q 806.8 73.251 806.8 77.551 Q 806.8 81.201 804.825 84.326 A 16.046 16.046 0 0 1 801.597 87.991 A 20.836 20.836 0 0 1 799.175 89.751 A 26.992 26.992 0 0 1 794.729 91.968 A 36.301 36.301 0 0 1 790.4 93.351 A 41.086 41.086 0 0 1 784.314 94.402 A 52.709 52.709 0 0 1 779.1 94.651 Q 773.55 94.651 769.1 93.676 A 30.94 30.94 0 0 1 765.339 92.613 Q 763.234 91.863 761.525 90.851 A 15.99 15.99 0 0 1 758.844 88.883 A 12.358 12.358 0 0 1 756.75 86.401 Q 755.1 83.801 755.1 80.601 Q 755.1 78.051 756.475 75.801 A 10.422 10.422 0 0 1 758.584 73.349 A 14.05 14.05 0 0 1 760.575 71.926 Q 763.13 70.403 766.761 69.604 A 30.15 30.15 0 0 1 767.25 69.501 A 17.241 17.241 0 0 1 765.327 68.371 Q 763.788 67.318 762.875 66.101 Q 761.45 64.201 761.45 61.751 Q 761.45 59.651 762.675 57.776 A 10.336 10.336 0 0 1 764.442 55.742 A 13.958 13.958 0 0 1 766.175 54.426 A 18.957 18.957 0 0 1 768.995 52.933 A 24.901 24.901 0 0 1 771.55 52.001 Q 774.65 51.051 778.4 50.901 Z" />
        <path fill="#c00000" d=" M 130.2 72.151 L 119.2 72.151 L 119.2 0.151 L 130.2 0.151 L 130.2 72.151 Z" />
        <path fill="#c00000" d=" M 600.65 72.151 L 589.65 72.151 L 589.65 0.151 L 600.65 0.151 L 600.65 72.151 Z" />
        <path fill="#191919" d=" M 375.6 72.151 L 364.4 72.151 L 364.4 2.151 L 375.6 2.151 L 375.6 72.151 Z" />
        <path fill="#c00000"
            d=" M 773.45 55.748 A 28.077 28.077 0 0 0 779.85 56.451 Q 786.05 56.451 790.95 54.076 Q 795.85 51.701 798.7 47.701 Q 801.55 43.701 801.55 38.801 Q 801.55 33.851 798.675 29.851 A 18.635 18.635 0 0 0 795.947 26.821 A 21.431 21.431 0 0 0 790.9 23.501 Q 786 21.151 779.85 21.151 A 29.84 29.84 0 0 0 776.669 21.317 A 24.168 24.168 0 0 0 768.775 23.501 Q 763.85 25.851 760.975 29.851 Q 758.1 33.851 758.1 38.801 Q 758.1 43.751 760.95 47.751 A 18.328 18.328 0 0 0 763.841 50.935 A 21.389 21.389 0 0 0 768.725 54.101 A 23.174 23.174 0 0 0 773.45 55.748 Z" />
        <path fill="#c00000" d=" M 156.5 72.151 L 145.5 72.151 L 145.5 22.651 L 156.5 22.651 L 156.5 72.151 Z" />
        <path fill="#c00000" d=" M 682.75 72.151 L 671.75 72.151 L 671.75 22.651 L 682.75 22.651 L 682.75 72.151 Z" />
        <path fill="#ffffff"
            d=" M 11.2 40.451 L 11.2 63.351 L 23.25 63.351 A 29.451 29.451 0 0 0 27.007 63.128 Q 31.347 62.568 33.85 60.606 A 8.996 8.996 0 0 0 33.95 60.526 A 9.024 9.024 0 0 0 37.036 55.58 Q 37.424 54.062 37.448 52.245 A 18.266 18.266 0 0 0 37.45 52.001 A 14.473 14.473 0 0 0 37.07 48.584 A 9.469 9.469 0 0 0 33.925 43.401 Q 30.4 40.451 23.05 40.451 L 11.2 40.451 Z" />
        <path fill="#ffffff"
            d=" M 11.2 10.951 L 11.2 32.051 L 22.3 32.051 Q 26.136 32.051 28.986 30.885 A 12.882 12.882 0 0 0 29.3 30.751 Q 32.25 29.451 33.9 27.001 A 9.574 9.574 0 0 0 35.397 23.111 A 12.724 12.724 0 0 0 35.55 21.101 A 10.998 10.998 0 0 0 35.101 17.873 A 8.32 8.32 0 0 0 32.075 13.576 A 11.581 11.581 0 0 0 28.539 11.805 Q 26.93 11.298 24.979 11.092 A 26.982 26.982 0 0 0 22.15 10.951 L 11.2 10.951 Z" />
        <path fill="#ffffff"
            d=" M 784.65 72.951 L 775.55 72.251 A 22.753 22.753 0 0 0 772.917 72.604 Q 771.333 72.917 770.025 73.451 A 11.232 11.232 0 0 0 768.439 74.241 Q 767.566 74.772 766.929 75.418 A 6.285 6.285 0 0 0 766.5 75.901 Q 765.3 77.401 765.3 79.301 A 5.377 5.377 0 0 0 766.753 82.99 A 7.245 7.245 0 0 0 767.1 83.351 A 9.188 9.188 0 0 0 768.972 84.734 Q 769.908 85.267 771.066 85.69 A 18.692 18.692 0 0 0 772.25 86.076 Q 775.142 86.918 778.966 87.033 A 41.043 41.043 0 0 0 780.2 87.051 A 40.706 40.706 0 0 0 784.546 86.834 Q 788.986 86.356 791.925 84.826 A 11.365 11.365 0 0 0 793.894 83.551 Q 794.939 82.693 795.51 81.689 A 5.244 5.244 0 0 0 796.2 79.051 A 4.248 4.248 0 0 0 794.529 75.62 A 7.053 7.053 0 0 0 793.35 74.851 A 11.959 11.959 0 0 0 791.276 74.021 Q 788.672 73.226 784.65 72.951 Z" />
        <path fill="#ffffff"
            d=" M 68.9 41.751 L 96.95 41.751 A 15.202 15.202 0 0 0 96.398 37.962 A 10.776 10.776 0 0 0 93.375 32.951 A 11.161 11.161 0 0 0 88.847 30.431 Q 87.127 29.921 85.064 29.794 A 22.933 22.933 0 0 0 83.65 29.751 Q 77.55 29.751 73.525 32.951 A 12.152 12.152 0 0 0 69.072 40.555 A 16.364 16.364 0 0 0 68.9 41.751 Z" />
        <path fill="#ffffff"
            d=" M 178.75 41.751 L 206.8 41.751 A 15.202 15.202 0 0 0 206.248 37.962 A 10.776 10.776 0 0 0 203.225 32.951 A 11.161 11.161 0 0 0 198.697 30.431 Q 196.977 29.921 194.914 29.794 A 22.933 22.933 0 0 0 193.5 29.751 Q 187.4 29.751 183.375 32.951 A 12.152 12.152 0 0 0 178.922 40.555 A 16.364 16.364 0 0 0 178.75 41.751 Z" />
        <path fill="#ffffff"
            d=" M 288.15 41.751 L 316.2 41.751 A 15.202 15.202 0 0 0 315.648 37.962 A 10.776 10.776 0 0 0 312.625 32.951 A 11.161 11.161 0 0 0 308.097 30.431 Q 306.377 29.921 304.314 29.794 A 22.933 22.933 0 0 0 302.9 29.751 Q 296.8 29.751 292.775 32.951 A 12.152 12.152 0 0 0 288.322 40.555 A 16.364 16.364 0 0 0 288.15 41.751 Z" />
        <path fill="#ffffff"
            d=" M 779.85 48.201 A 16.835 16.835 0 0 0 783.063 47.907 A 13.17 13.17 0 0 0 785.9 47.026 A 10.703 10.703 0 0 0 788.439 45.47 A 9.1 9.1 0 0 0 790.05 43.726 A 8.216 8.216 0 0 0 791.539 39.277 A 10.141 10.141 0 0 0 791.55 38.801 A 8.704 8.704 0 0 0 790.757 35.048 Q 789.938 33.309 788.275 31.976 A 11.624 11.624 0 0 0 783.379 29.705 A 16.7 16.7 0 0 0 779.85 29.351 A 16.896 16.896 0 0 0 776.797 29.615 A 12.797 12.797 0 0 0 773.775 30.551 A 10.848 10.848 0 0 0 771.193 32.18 A 9.311 9.311 0 0 0 769.65 33.876 A 8.216 8.216 0 0 0 768.161 38.325 A 10.141 10.141 0 0 0 768.15 38.801 A 8.497 8.497 0 0 0 769.047 42.728 Q 769.858 44.313 771.401 45.556 A 10.815 10.815 0 0 0 771.425 45.576 A 11.624 11.624 0 0 0 776.321 47.847 A 16.7 16.7 0 0 0 779.85 48.201 Z" />
        <path fill="#c00000" d=" M 809.9 31.751 L 787.55 31.351 L 783.45 23.701 L 810 22.651 L 809.9 31.751 Z" />
        <path fill="#c00000"
            d=" M 151 13.801 Q 148.05 13.801 145.9 11.901 Q 143.75 10.001 143.75 6.901 Q 143.75 3.851 145.9 1.926 Q 148.05 0.001 151 0.001 Q 153.95 0.001 156.1 1.926 A 6.304 6.304 0 0 1 158.242 6.524 A 8.365 8.365 0 0 1 158.25 6.901 A 7.239 7.239 0 0 1 157.871 9.293 A 6.123 6.123 0 0 1 156.1 11.901 Q 153.95 13.801 151 13.801 Z" />
        <path fill="#c00000"
            d=" M 677.25 13.801 Q 674.3 13.801 672.15 11.901 Q 670 10.001 670 6.901 Q 670 3.851 672.15 1.926 Q 674.3 0.001 677.25 0.001 Q 680.2 0.001 682.35 1.926 A 6.304 6.304 0 0 1 684.492 6.524 A 8.365 8.365 0 0 1 684.5 6.901 A 7.239 7.239 0 0 1 684.121 9.293 A 6.123 6.123 0 0 1 682.35 11.901 Q 680.2 13.801 677.25 13.801 Z" />
    </g>
</svg>