<svg xmlns="http://www.w3.org/2000/svg" viewBox="0 -204 758.85 400">
    <g>
        <path fill="#191919"
            d="M 537.4 44.1 L 537.7 49.1 Q 529.4 48.1 523.7 48.3 A 45.5 45.5 0 0 0 522.9 48.4 A 49.4 49.4 0 0 0 519.4 48.7 Q 515.8 49.2 513.4 50.2 A 16.5 16.5 0 0 0 511.2 51.2 Q 510.1 51.8 509.3 52.6 A 7.7 7.7 0 0 0 508.3 53.8 Q 506.7 56 506.7 58.5 Q 506.7 63 509.9 65.5 A 10.6 10.6 0 0 0 513.5 67.4 Q 515.8 68.1 518.6 68.1 A 21.4 21.4 0 0 0 523.3 67.6 A 17.6 17.6 0 0 0 527 66.3 A 15.9 15.9 0 0 0 530.9 63.8 A 14 14 0 0 0 532.9 61.5 A 11.8 11.8 0 0 0 535.1 54.5 L 535.1 39.8 A 14.6 14.6 0 0 0 534.8 36.5 A 11.1 11.1 0 0 0 533.4 33.2 A 11 11 0 0 0 529.1 29.2 A 13.4 13.4 0 0 0 528.5 28.9 A 14.9 14.9 0 0 0 524.9 27.8 Q 523.3 27.4 521.4 27.4 A 25.7 25.7 0 0 0 520.9 27.4 Q 517.1 27.4 513.4 28.6 A 23.1 23.1 0 0 0 508.7 30.6 A 29.5 29.5 0 0 0 505.9 32.4 L 503.9 27.4 A 29 29 0 0 1 508.6 24.6 A 23.4 23.4 0 0 1 512.6 23.1 A 37.2 37.2 0 0 1 517.4 22.2 A 29.6 29.6 0 0 1 521 22 A 34.7 34.7 0 0 1 525.6 22.3 Q 528 22.6 530 23.3 A 18.1 18.1 0 0 1 531.9 24.1 A 14.8 14.8 0 0 1 536.4 27.2 A 13.8 13.8 0 0 1 538.5 30.1 Q 540.6 33.8 540.7 39.1 A 29.3 29.3 0 0 1 540.7 39.8 L 540.7 72 L 535.1 72 L 535.1 65.7 A 16.1 16.1 0 0 1 529.1 71 A 19.7 19.7 0 0 1 527.9 71.5 A 24.4 24.4 0 0 1 519.8 73.4 A 28.9 28.9 0 0 1 517.8 73.5 A 24.7 24.7 0 0 1 513.6 73.2 Q 511 72.7 508.8 71.6 A 14 14 0 0 1 504.8 68.7 A 12.9 12.9 0 0 1 503.1 66.4 A 14.3 14.3 0 0 1 501.3 61.1 A 18.4 18.4 0 0 1 501.1 58.5 Q 501.1 54.8 503 51.7 Q 504.9 48.5 509.2 46.5 A 23 23 0 0 1 512.9 45 Q 516.2 44.1 520.4 43.6 Q 527.4 43 537.4 44.1 " />
        <path fill="#191919"
            d=" M 585.3 72 L 579.6 72 L 579.6 0 L 585.3 0 L 585.3 47.3 L 608.9 24 L 615.9 24 L 598.8 41.3 L 619.5 72 L 612.5 72 L 594.6 44.9 L 585.3 54.2 L 585.3 72 " />
        <path fill="#191919"
            d=" M 372.4 72 L 366.8 72 L 366.8 24 L 372.4 24 L 372.4 31.2 A 23 23 0 0 1 375.6 27.5 A 17.5 17.5 0 0 1 380 24.5 Q 384.4 22.5 388.9 22.5 A 25.7 25.7 0 0 1 393.5 22.9 Q 396.2 23.4 398.5 24.5 A 15.2 15.2 0 0 1 399.4 25.1 A 18.6 18.6 0 0 1 403.6 28.5 A 16 16 0 0 1 405.8 31.7 A 18.3 18.3 0 0 1 407.5 36.2 A 15.6 15.6 0 0 1 407.9 39.7 L 407.9 72 L 402.4 72 L 402.4 41.4 A 14.8 14.8 0 0 0 401.7 36.8 A 12.2 12.2 0 0 0 398.4 31.6 A 13.3 13.3 0 0 0 391.8 28.3 A 19.3 19.3 0 0 0 387.9 27.9 A 16.4 16.4 0 0 0 382.2 28.9 A 15.3 15.3 0 0 0 380 29.9 Q 376.5 31.8 374.4 35.3 A 15 15 0 0 0 372.5 41.1 A 19 19 0 0 0 372.4 43.5 L 372.4 72 " />
        <path fill="#191919"
            d=" M 659.1 72 L 653.5 72 L 653.5 24 L 659.1 24 L 659.1 31.2 A 23 23 0 0 1 662.4 27.5 A 17.5 17.5 0 0 1 666.8 24.5 Q 671.1 22.5 675.6 22.5 A 25.7 25.7 0 0 1 680.3 22.9 Q 683 23.4 685.3 24.5 A 15.2 15.2 0 0 1 686.3 25.1 A 18.6 18.6 0 0 1 690.4 28.5 A 16 16 0 0 1 692.6 31.7 A 18.3 18.3 0 0 1 694.3 36.2 A 15.6 15.6 0 0 1 694.8 39.7 L 694.8 72 L 689.1 72 L 689.1 41.4 A 14.8 14.8 0 0 0 688.5 36.8 A 12.2 12.2 0 0 0 685.2 31.6 A 13.3 13.3 0 0 0 678.6 28.3 A 19.3 19.3 0 0 0 674.6 27.9 A 16.4 16.4 0 0 0 669 28.9 A 15.3 15.3 0 0 0 666.8 29.9 Q 663.3 31.8 661.2 35.3 A 15 15 0 0 0 659.3 41.1 A 19 19 0 0 0 659.1 43.5 L 659.1 72 " />
        <path fill="#191919"
            d=" M 471.9 72 L 466.1 72 L 466.1 7.4 L 445.4 7.4 L 445.4 2 L 492.6 2 L 492.6 7.4 L 471.9 7.4 L 471.9 72 " />
        <path fill="#191919"
            d=" M 101.9 48.6 L 61.2 48.6 A 25.5 25.5 0 0 0 61.2 49.9 Q 61.2 54.9 63.3 58.8 Q 65.6 63.2 70.2 65.7 A 20.2 20.2 0 0 0 75.9 67.6 A 28 28 0 0 0 81.2 68.1 Q 85 68.1 88.9 66.7 A 19.4 19.4 0 0 0 93.4 64.4 A 17.2 17.2 0 0 0 95.4 62.8 L 98.7 67.5 Q 96.2 69.5 93.2 70.9 Q 90.1 72.3 86.9 72.9 Q 83.7 73.5 80.5 73.5 A 30.1 30.1 0 0 1 73.2 72.7 A 24.5 24.5 0 0 1 67.3 70.3 Q 61.5 67.2 58.3 61.5 A 24.6 24.6 0 0 1 55.3 52.5 A 31.6 31.6 0 0 1 55 48.2 A 28.8 28.8 0 0 1 55.9 41 A 25.7 25.7 0 0 1 56.9 38 Q 58.7 33.3 62 29.8 Q 65.4 26.4 69.9 24.4 A 24 24 0 0 1 78.3 22.5 A 27.9 27.9 0 0 1 79.6 22.5 A 26.7 26.7 0 0 1 85.1 23 A 21.4 21.4 0 0 1 89.5 24.5 Q 93.9 26.4 96.8 30 Q 99.8 33.5 101.1 38.3 A 25.7 25.7 0 0 1 102 44.5 Q 102.1 45 102.1 45.5 A 31.9 31.9 0 0 1 101.9 48.6 M 61.4 43.4 L 95.9 43.4 Q 95.6 37.1 92.6 33.2 A 13.3 13.3 0 0 0 91.5 32 Q 87.4 27.9 79.6 27.9 A 22.9 22.9 0 0 0 73.9 28.6 A 17 17 0 0 0 67.2 32 A 15.7 15.7 0 0 0 62 40 A 21.8 21.8 0 0 0 61.4 43.4 Z" />
        <path fill="#191919"
            d="M 202.2 48.6 L 161.4 48.6 A 25.5 25.5 0 0 0 161.4 49.9 Q 161.4 54.9 163.5 58.8 Q 165.8 63.2 170.4 65.7 A 20.2 20.2 0 0 0 176.2 67.6 A 28 28 0 0 0 181.4 68.1 Q 185.3 68.1 189.1 66.7 A 19.4 19.4 0 0 0 193.7 64.4 A 17.2 17.2 0 0 0 195.7 62.8 L 198.9 67.5 Q 196.4 69.5 193.4 70.9 Q 190.3 72.3 187.1 72.9 Q 183.9 73.5 180.8 73.5 A 30.1 30.1 0 0 1 173.5 72.7 A 24.5 24.5 0 0 1 167.5 70.3 Q 161.8 67.2 158.5 61.5 A 24.6 24.6 0 0 1 155.5 52.5 A 31.6 31.6 0 0 1 155.3 48.2 A 28.8 28.8 0 0 1 156.1 41 A 25.7 25.7 0 0 1 157.1 38 Q 158.9 33.3 162.3 29.8 Q 165.7 26.4 170.1 24.4 A 24 24 0 0 1 178.6 22.5 A 27.9 27.9 0 0 1 179.8 22.5 A 26.7 26.7 0 0 1 185.4 23 A 21.4 21.4 0 0 1 189.8 24.5 Q 194.2 26.4 197.1 30 Q 200 33.5 201.3 38.3 A 25.7 25.7 0 0 1 202.3 44.5 Q 202.3 45 202.3 45.5 A 31.9 31.9 0 0 1 202.2 48.6 M 161.7 43.4 L 196.2 43.4 Q 195.9 37.1 192.8 33.2 A 13.3 13.3 0 0 0 191.8 32 Q 187.7 27.9 179.8 27.9 A 22.9 22.9 0 0 0 174.2 28.6 A 17 17 0 0 0 167.4 32 A 15.7 15.7 0 0 0 162.3 40 A 21.8 21.8 0 0 0 161.7 43.4 Z" />
        <path fill="#191919" d=" M 758.8 29.2 L 738 29.2 L 736 24.5 L 758.9 24 L 758.8 29.2 Z" />
        <path fill="#191919" fill-rule="evenodd"
            d=" M 305.5 48.6 L 264.8 48.6 A 25.5 25.5 0 0 0 264.8 49.9 Q 264.8 54.9 266.9 58.8 Q 269.2 63.2 273.8 65.7 A 20.2 20.2 0 0 0 279.5 67.6 A 28 28 0 0 0 284.8 68.1 Q 288.6 68.1 292.5 66.7 A 19.4 19.4 0 0 0 297 64.4 A 17.2 17.2 0 0 0 299 62.8 L 302.3 67.5 Q 299.8 69.5 296.8 70.9 Q 293.7 72.3 290.5 72.9 Q 287.3 73.5 284.1 73.5 A 30.1 30.1 0 0 1 276.8 72.7 A 24.5 24.5 0 0 1 270.9 70.3 Q 265.1 67.2 261.9 61.5 A 24.6 24.6 0 0 1 258.9 52.5 A 31.6 31.6 0 0 1 258.6 48.2 A 28.8 28.8 0 0 1 259.5 41 A 25.7 25.7 0 0 1 260.4 38 Q 262.3 33.3 265.6 29.8 Q 269 26.4 273.5 24.4 A 24 24 0 0 1 281.9 22.5 A 27.9 27.9 0 0 1 283.2 22.5 A 26.7 26.7 0 0 1 288.7 23 A 21.4 21.4 0 0 1 293.1 24.5 Q 297.5 26.4 300.4 30 Q 303.4 33.5 304.7 38.3 A 25.7 25.7 0 0 1 305.6 44.5 Q 305.7 45 305.7 45.5 A 31.9 31.9 0 0 1 305.5 48.6 Z M 265 43.4 L 299.5 43.4 Q 299.2 37.1 296.2 33.2 A 13.3 13.3 0 0 0 295.1 32 Q 291 27.9 283.2 27.9 A 22.9 22.9 0 0 0 277.5 28.6 A 17 17 0 0 0 270.8 32 A 15.7 15.7 0 0 0 265.6 40 A 21.8 21.8 0 0 0 265 43.4 Z" />
        <path fill="#191919"
            d="M 5.8 38.5 L 5.8 66.6 L 21.1 66.6 A 37.7 37.7 0 0 0 25.8 66.3 Q 31 65.7 34.1 63.4 A 11.1 11.1 0 0 0 34.4 63.2 A 10.8 10.8 0 0 0 38.1 57.4 Q 38.6 55.5 38.7 53.3 A 22.5 22.5 0 0 0 38.7 52.7 Q 38.7 45.7 34.2 42.1 A 13.7 13.7 0 0 0 30.2 39.9 Q 26.2 38.5 20.2 38.5 L 5.8 38.5 Z M 22.5 72 L 0 72 L 0 2 L 20.9 2 A 32.7 32.7 0 0 1 27.5 2.6 Q 32.6 3.7 36.3 6.5 Q 42.3 10.9 42.3 19.6 A 13.3 13.3 0 0 1 40.9 25.6 A 16 16 0 0 1 40.5 26.3 Q 38.6 29.6 35.9 31.9 A 19.2 19.2 0 0 1 33.6 33.7 Q 32.2 34.6 30.8 35.1 A 11.4 11.4 0 0 1 30.4 35.2 Q 36.3 36.8 40.4 41.4 Q 44.5 46 44.5 53.2 A 18 18 0 0 1 43.1 60.3 A 17.3 17.3 0 0 1 41.8 62.8 Q 39.1 67 34.2 69.5 A 22.7 22.7 0 0 1 27.9 71.6 A 31 31 0 0 1 22.5 72 Z M 5.8 7.4 L 5.8 33.1 L 19.7 33.1 A 27 27 0 0 0 24 32.8 A 19.5 19.5 0 0 0 28.5 31.5 Q 32.3 29.9 34.4 26.9 A 11.6 11.6 0 0 0 36.4 21.8 A 15.1 15.1 0 0 0 36.5 19.7 A 13 13 0 0 0 35.9 15.8 A 10 10 0 0 0 32.1 10.6 A 14.9 14.9 0 0 0 27.8 8.5 Q 25.8 7.8 23.3 7.6 A 35.2 35.2 0 0 0 19.6 7.4 L 5.8 7.4 Z" />
        <path fill="#191919"
            d=" M 233.5 72 L 227.4 72 L 208.4 24 L 214.9 24 L 231.4 67.3 L 229.9 67.3 L 246.2 24 L 252.5 24 L 233.5 72 Z" />
        <path fill="#191919"
            d=" M 729.4 52.1 L 731.3 55.5 A 29.5 29.5 0 0 0 728.3 55.6 Q 726.7 55.8 725.3 56.1 A 15.1 15.1 0 0 0 723.6 56.7 Q 722.7 57 722.1 57.4 A 7.2 7.2 0 0 0 721.2 58 A 4.4 4.4 0 0 0 720.4 58.9 A 3.3 3.3 0 0 0 719.8 60.8 A 3.1 3.1 0 0 0 720.1 62.3 Q 720.4 63 721.2 63.4 A 5 5 0 0 0 722.2 63.9 Q 724.1 64.5 726.8 64.8 A 39 39 0 0 0 728.4 65 L 736.5 65.6 A 53.4 53.4 0 0 1 740.9 66.1 Q 744.3 66.6 747 67.6 A 18.6 18.6 0 0 1 749.9 68.9 Q 751.5 69.8 752.6 71 A 10.6 10.6 0 0 1 753.4 71.8 Q 755.5 74.5 755.5 78.5 Q 755.5 81.8 753.7 84.8 A 15.4 15.4 0 0 1 750.7 88.3 A 19.6 19.6 0 0 1 748.5 89.9 A 24.4 24.4 0 0 1 744.4 92 A 32.2 32.2 0 0 1 740.6 93.3 A 36.3 36.3 0 0 1 734.7 94.3 A 46.1 46.1 0 0 1 730.4 94.5 A 50.1 50.1 0 0 1 725.4 94.3 A 36.7 36.7 0 0 1 720.7 93.5 A 29.3 29.3 0 0 1 717 92.4 Q 715.1 91.7 713.6 90.8 A 18 18 0 0 1 713.4 90.7 A 15.3 15.3 0 0 1 710.8 88.6 A 12.1 12.1 0 0 1 708.8 86.2 A 11 11 0 0 1 707.3 80.5 A 13 13 0 0 1 707.3 80.4 Q 707.3 77.7 708.6 75.5 Q 710 73.2 712.9 71.6 A 19.4 19.4 0 0 1 712.9 71.6 A 18.5 18.5 0 0 1 715.7 70.3 Q 717.6 69.6 720 69.1 A 18.6 18.6 0 0 1 718.1 68.1 Q 716.4 67.2 715.5 66 Q 714 64.3 714 62 Q 714 60.1 715 58.5 A 8.9 8.9 0 0 1 716.4 56.9 Q 717.2 56.2 718.1 55.6 Q 720.1 54.3 722.8 53.5 A 28.1 28.1 0 0 1 723 53.4 A 30.4 30.4 0 0 1 726.4 52.5 A 39 39 0 0 1 729.4 52.1 Z M 734.9 71.4 L 726.4 70.8 A 27.9 27.9 0 0 0 723.1 71.2 Q 721.1 71.5 719.4 72.2 A 13.2 13.2 0 0 0 717.3 73.3 Q 716.1 74.1 715.2 75.1 A 7.9 7.9 0 0 0 715 75.3 Q 713.5 77.3 713.5 79.8 Q 713.5 82.7 715.5 84.9 A 10.9 10.9 0 0 0 717.8 86.8 Q 719.3 87.7 721.3 88.3 A 22.6 22.6 0 0 0 725 89.2 Q 727.4 89.6 730.3 89.6 A 45 45 0 0 0 735.5 89.3 Q 740.8 88.7 744.3 86.7 A 13.6 13.6 0 0 0 746.7 84.9 Q 748.1 83.7 748.8 82.2 A 7.1 7.1 0 0 0 749.4 79.3 Q 749.4 75.8 745.7 73.9 Q 742 71.9 734.9 71.4 Z" />
        <path fill="#191919" d=" M 120.2 72 L 114.5 72 L 114.5 0 L 120.2 0 L 120.2 72 Z" />
        <path fill="#191919" d=" M 562.6 72 L 557 72 L 557 0 L 562.6 0 L 562.6 72 Z" />
        <path fill="#191919" fill-rule="evenodd"
            d=" M 723.4 55.6 A 24.3 24.3 0 0 0 730.3 56.5 A 27 27 0 0 0 732 56.4 A 22.6 22.6 0 0 0 740.5 54.2 Q 745.2 52 748 48.1 Q 750.8 44.3 750.8 39.5 Q 750.8 34.8 748 30.9 Q 745.2 27.1 740.5 24.8 A 21.6 21.6 0 0 0 737.1 23.4 A 24.3 24.3 0 0 0 730.3 22.5 A 27 27 0 0 0 728.5 22.6 A 22.6 22.6 0 0 0 720 24.8 Q 715.3 27.1 712.5 30.9 Q 709.8 34.8 709.8 39.5 Q 709.8 44.3 712.5 48.1 Q 715.3 52 720 54.2 A 21.6 21.6 0 0 0 723.4 55.6 Z M 730.3 51.1 A 21.1 21.1 0 0 0 734 50.8 A 15.7 15.7 0 0 0 737.7 49.6 A 12.6 12.6 0 0 0 740.8 47.7 A 10.8 10.8 0 0 0 742.7 45.6 A 10.4 10.4 0 0 0 744.4 40.4 A 12.8 12.8 0 0 0 744.5 39.5 A 11.2 11.2 0 0 0 743.7 35.2 A 10.4 10.4 0 0 0 740.5 31.1 Q 736.9 28.1 730.9 27.9 A 24.8 24.8 0 0 0 730.3 27.9 A 20.7 20.7 0 0 0 726.5 28.2 A 15.5 15.5 0 0 0 722.8 29.4 A 13 13 0 0 0 719.8 31.3 A 11 11 0 0 0 717.8 33.5 A 10.2 10.2 0 0 0 716.1 38.5 A 12.8 12.8 0 0 0 716 39.5 A 10.9 10.9 0 0 0 716.9 44 A 10.6 10.6 0 0 0 720 47.9 Q 723.9 51.1 730.3 51.1 Z" />
        <path fill="#191919" d=" M 142.8 72 L 137.2 72 L 137.2 24 L 142.8 24 L 142.8 72 Z" />
        <path fill="#191919" d=" M 349.8 72 L 344.1 72 L 344.1 24 L 349.8 24 L 349.8 72 Z" />
        <path fill="#191919" d=" M 636.5 72 L 631 72 L 631 24 L 636.5 24 L 636.5 72 Z" />
        <path fill="none"
            d=" M 61.4 43.4 L 95.9 43.4 Q 95.6 37.1 92.6 33.2 A 13.3 13.3 0 0 0 91.5 32 Q 87.4 27.9 79.6 27.9 A 22.9 22.9 0 0 0 73.9 28.6 A 17 17 0 0 0 67.2 32 A 15.7 15.7 0 0 0 62 40 A 21.8 21.8 0 0 0 61.4 43.4 Z" />
        <path fill="#191919"
            d=" M 136.7 12.6 A 4.5 4.5 0 0 0 139.9 13.9 A 5.5 5.5 0 0 0 140 13.9 A 4.5 4.5 0 0 0 143.3 12.5 A 5.4 5.4 0 0 0 143.3 12.5 A 4.5 4.5 0 0 0 144.7 9.2 A 5.5 5.5 0 0 0 144.7 9.1 A 4.5 4.5 0 0 0 143.3 5.9 A 5.4 5.4 0 0 0 143.2 5.8 A 4.5 4.5 0 0 0 139.9 4.5 A 5.5 5.5 0 0 0 139.9 4.5 A 4.5 4.5 0 0 0 136.6 5.9 A 5.4 5.4 0 0 0 136.6 5.9 A 4.5 4.5 0 0 0 135.3 9.2 A 5.5 5.5 0 0 0 135.3 9.3 A 4.5 4.5 0 0 0 136.6 12.5 A 5.4 5.4 0 0 0 136.7 12.6 Z" />
        <path fill="#191919"
            d=" M 343.7 12.6 A 4.5 4.5 0 0 0 346.9 13.9 A 5.5 5.5 0 0 0 347 13.9 A 4.5 4.5 0 0 0 350.3 12.5 A 5.4 5.4 0 0 0 350.3 12.5 A 4.5 4.5 0 0 0 351.6 9.2 A 5.5 5.5 0 0 0 351.6 9.1 A 4.5 4.5 0 0 0 350.3 5.9 A 5.4 5.4 0 0 0 350.2 5.8 A 4.5 4.5 0 0 0 346.9 4.5 A 5.5 5.5 0 0 0 346.9 4.5 A 4.5 4.5 0 0 0 343.6 5.9 A 5.4 5.4 0 0 0 343.6 5.9 A 4.5 4.5 0 0 0 342.3 9.2 A 5.5 5.5 0 0 0 342.3 9.3 A 4.5 4.5 0 0 0 343.6 12.5 A 5.4 5.4 0 0 0 343.7 12.6 Z" />
        <path fill="#191919"
            d=" M 630.5 12.6 A 4.5 4.5 0 0 0 633.8 13.9 A 5.5 5.5 0 0 0 633.8 13.9 A 4.5 4.5 0 0 0 637.1 12.5 A 5.4 5.4 0 0 0 637.1 12.5 A 4.5 4.5 0 0 0 638.5 9.2 A 5.5 5.5 0 0 0 638.5 9.1 A 4.5 4.5 0 0 0 637.1 5.9 A 5.4 5.4 0 0 0 637 5.8 A 4.5 4.5 0 0 0 633.8 4.5 A 5.5 5.5 0 0 0 633.7 4.5 A 4.5 4.5 0 0 0 630.4 5.9 A 5.4 5.4 0 0 0 630.4 5.9 A 4.5 4.5 0 0 0 629 9.2 A 5.5 5.5 0 0 0 629 9.3 A 4.5 4.5 0 0 0 630.4 12.5 A 5.4 5.4 0 0 0 630.5 12.6 Z" />
    </g>
    <g>
        <path fill="none" stroke="#191919" stroke-width="1"
            d="M 355.375 -109.8 C 345.175 -101.4 336.175 -96 319.375 -96 c 6 -6 13.8 -14.4 16.8 -26.4 C 325.975 -131.4 319.375 -142.8 319.375 -156 c 0 -26.4 27 -48 60 -48 c 30.6 0 55.8 18.6 59.4 42" />
        <path fill="#191919"
            d=" M 403.375 -102.6 c -19.8 0 -36 -12 -36 -26.4 C 367.375 -144 383.575 -156 403.375 -156 s 36 12 36 26.4 c 0 7.2 -3.6 13.8 -10.2 18.6 c 1.8 7.2 6.6 11.4 10.2 15 c -10.8 0 -16.2 -3 -22.8 -8.4 c -4.2 1.2 -8.4 1.8 -13.2 1.8" />
    </g>
    <g>
        <path fill="#191919"
            d="M 415.625 175 L 416.825 173.2 Q 417.825 174 419.125 174.5 Q 420.325 175 421.625 175.3 Q 423.025 175.5 424.425 175.5 A 12.9 12.9 90 0 0 426.525 175.4 Q 428.325 175.1 429.625 174.2 A 4.2 4.2 90 0 0 431.525 171.2 A 5.9 5.9 90 0 0 431.525 170.4 A 4.1 4.1 90 0 0 430.325 167.4 A 5 5 90 0 0 430.325 167.4 A 5.3 5.3 90 0 0 429.425 166.6 Q 428.325 166 426.725 165.4 A 26.1 26.1 90 0 0 425.625 165.1 L 422.425 164.1 A 19.2 19.2 90 0 1 420.525 163.5 Q 419.525 163 418.825 162.6 A 7.6 7.6 90 0 1 417.425 161.6 Q 415.825 160 415.825 157.5 A 7.6 7.6 90 0 1 416.025 155.7 A 6.2 6.2 90 0 1 416.525 154.4 Q 417.125 153.1 418.425 152.1 A 8.2 8.2 90 0 1 420.325 151 A 10 10 90 0 1 421.225 150.7 A 11.8 11.8 90 0 1 423.525 150.3 A 14.6 14.6 90 0 1 424.925 150.2 A 14.1 14.1 90 0 1 427.825 150.5 A 12.1 12.1 90 0 1 429.225 150.9 Q 431.225 151.5 432.525 152.6 L 431.325 154.3 Q 430.425 153.7 429.325 153.2 Q 428.225 152.7 427.025 152.4 Q 425.725 152.2 424.425 152.2 A 10.9 10.9 90 0 0 422.725 152.3 A 8.1 8.1 90 0 0 421.025 152.8 A 5.7 5.7 90 0 0 419.725 153.5 A 4.7 4.7 90 0 0 418.725 154.5 A 4.3 4.3 90 0 0 417.925 156.3 A 5.8 5.8 90 0 0 417.825 157.3 A 4.5 4.5 90 0 0 418.025 158.4 A 3.7 3.7 90 0 0 418.425 159.4 A 3.4 3.4 90 0 0 419.025 160.1 Q 419.325 160.4 419.725 160.6 A 7.3 7.3 90 0 0 420.225 161 A 10.6 10.6 90 0 0 421.125 161.4 Q 422.125 161.9 423.525 162.3 A 33.7 33.7 90 0 0 423.825 162.4 L 427.225 163.4 A 16.7 16.7 90 0 1 429.125 164.1 Q 430.125 164.5 430.825 165 A 7.2 7.2 90 0 1 432.025 166 Q 433.625 167.6 433.625 170.3 A 7.7 7.7 90 0 1 433.325 172.4 A 6.5 6.5 90 0 1 432.525 174.1 A 6.4 6.4 90 0 1 430.525 176.1 A 8.4 8.4 90 0 1 429.525 176.6 A 9.8 9.8 90 0 1 427.325 177.3 Q 426.425 177.5 425.225 177.6 A 18.2 18.2 90 0 1 424.425 177.6 Q 422.025 177.6 419.625 176.9 A 13.3 13.3 90 0 1 417.525 176.1 A 10 10 90 0 1 415.625 175 Z" />
        <path
            d="M 228.825 152.8 L 227.525 154.5 Q 226.125 153.4 224.325 152.8 A 11.8 11.8 90 0 0 221.925 152.3 A 14.7 14.7 90 0 0 220.525 152.3 A 14 14 90 0 0 217.725 152.5 A 11.6 11.6 90 0 0 215.825 153.1 Q 213.825 153.9 212.325 155.4 A 10.1 10.1 90 0 0 210.125 158.6 A 11.8 11.8 90 0 0 210.025 159 A 12.4 12.4 90 0 0 209.325 161.9 A 15.9 15.9 90 0 0 209.225 163.8 A 16 16 90 0 0 209.425 166.8 Q 209.725 168.6 210.625 170.1 Q 212.025 172.7 214.625 174.1 Q 217.225 175.5 220.725 175.5 A 13.3 13.3 90 0 0 224.425 175 A 12.4 12.4 90 0 0 224.925 174.8 A 10.3 10.3 90 0 0 228.025 173.1 A 12.1 12.1 90 0 0 228.525 172.7 L 229.625 174.6 Q 227.625 176.1 225.325 176.8 A 16.3 16.3 90 0 1 221.625 177.5 A 19.2 19.2 90 0 1 220.325 177.6 Q 216.225 177.6 213.225 175.8 Q 210.225 174.1 208.625 171 A 13.9 13.9 90 0 1 207.125 166.5 A 18.1 18.1 90 0 1 206.925 163.8 A 15.6 15.6 90 0 1 207.325 160.3 A 13.5 13.5 90 0 1 207.925 158.4 Q 208.925 155.9 210.725 154.1 Q 212.525 152.2 214.925 151.2 A 13.5 13.5 90 0 1 219.025 150.2 A 16 16 90 0 1 220.325 150.2 Q 223.025 150.2 225.125 150.9 A 11.8 11.8 90 0 1 227.225 151.7 A 9.3 9.3 90 0 1 228.825 152.8 Z" />
        <path fill="#191919"
            d="M 279.625 177 L 277.525 177 L 277.525 159 L 279.625 159 L 279.625 161.7 A 8.6 8.6 90 0 1 280.825 160.3 A 6.6 6.6 90 0 1 282.425 159.2 Q 284.125 158.4 285.825 158.4 A 9.6 9.6 90 0 1 287.525 158.6 Q 288.525 158.8 289.425 159.2 A 5.7 5.7 90 0 1 289.725 159.4 A 7 7 90 0 1 291.325 160.7 A 6 6 90 0 1 292.125 161.9 A 6.9 6.9 90 0 1 292.825 163.6 A 5.8 5.8 90 0 1 292.925 164.9 L 292.925 177 L 290.825 177 L 290.825 165.5 A 5.5 5.5 90 0 0 290.625 163.8 A 4.6 4.6 90 0 0 289.325 161.9 A 5 5 90 0 0 286.925 160.6 A 7.2 7.2 90 0 0 285.425 160.5 A 6.2 6.2 90 0 0 283.225 160.8 A 5.7 5.7 90 0 0 282.525 161.2 Q 281.125 161.9 280.425 163.2 A 5.6 5.6 90 0 0 279.625 165.4 A 7.1 7.1 90 0 0 279.625 166.3 L 279.625 177 Z" />
        <path fill="#191919"
            d="M 364.725 177 L 362.725 177 L 362.725 159 L 364.725 159 L 364.725 161.7 A 8.6 8.6 90 0 1 366.025 160.3 A 6.6 6.6 90 0 1 367.625 159.2 Q 369.225 158.4 370.925 158.4 A 9.6 9.6 90 0 1 372.725 158.6 Q 373.725 158.8 374.625 159.2 A 5.7 5.7 90 0 1 374.925 159.4 A 7 7 90 0 1 376.525 160.7 A 6 6 90 0 1 377.325 161.9 A 6.9 6.9 90 0 1 377.925 163.6 A 5.8 5.8 90 0 1 378.125 164.9 L 378.125 177 L 376.025 177 L 376.025 165.5 A 5.5 5.5 90 0 0 375.825 163.8 A 4.6 4.6 90 0 0 374.525 161.9 A 5 5 90 0 0 372.025 160.6 A 7.2 7.2 90 0 0 370.525 160.5 A 6.2 6.2 90 0 0 368.525 160.8 A 5.7 5.7 90 0 0 367.625 161.2 Q 366.325 161.9 365.525 163.2 A 5.6 5.6 90 0 0 364.825 165.4 A 7.1 7.1 90 0 0 364.725 166.3 L 364.725 177 Z" />
        <path fill="#191919"
            d="M 255.925 171.1 L 255.925 159 L 258.025 159 L 258.025 170.5 A 5.8 5.8 90 0 0 258.225 172.2 A 4.6 4.6 90 0 0 259.425 174.1 A 4.8 4.8 90 0 0 261.825 175.4 A 7 7 90 0 0 263.325 175.5 A 5.8 5.8 90 0 0 265.625 175 A 5.7 5.7 90 0 0 266.225 174.8 Q 267.425 174.1 268.225 172.8 A 5.6 5.6 90 0 0 269.025 170.6 A 7.1 7.1 90 0 0 269.025 169.7 L 269.025 159 L 271.125 159 L 271.125 177 L 269.025 177 L 269.025 174.6 A 8.4 8.4 90 0 1 267.725 176 A 6.6 6.6 90 0 1 266.225 176.9 Q 264.625 177.6 262.925 177.6 A 9.4 9.4 90 0 1 261.225 177.4 Q 259.925 177.2 259.025 176.6 A 6.9 6.9 90 0 1 257.525 175.3 A 6 6 90 0 1 256.725 174.1 A 6.9 6.9 90 0 1 256.025 172.3 A 6 6 90 0 1 255.925 171.1 Z" />
        <path fill="#191919"
            d="M 297.825 175.2 L 298.925 173.4 A 7.3 7.3 90 0 0 301.225 175 A 8.4 8.4 90 0 0 301.425 175 Q 302.925 175.6 304.525 175.6 Q 306.725 175.6 307.925 174.8 Q 309.225 173.9 309.225 172.4 A 3.2 3.2 90 0 0 309.025 171.5 A 2.3 2.3 90 0 0 308.125 170.2 A 5.2 5.2 90 0 0 307.425 169.8 Q 306.725 169.4 305.525 169 A 31.2 31.2 90 0 0 304.325 168.7 Q 301.525 168 300.125 167 A 5.2 5.2 90 0 1 299.725 166.7 A 3.9 3.9 90 0 1 298.425 164.3 A 5.6 5.6 90 0 1 298.325 163.4 Q 298.325 162 299.225 160.8 A 5.4 5.4 90 0 1 300.925 159.2 A 6.7 6.7 90 0 1 301.425 158.9 A 7.1 7.1 90 0 1 303.425 158.4 A 9.2 9.2 90 0 1 304.725 158.3 Q 306.625 158.3 308.225 158.8 A 8.2 8.2 90 0 1 310.825 160.3 A 7.9 7.9 90 0 1 311.025 160.4 L 309.925 162.3 A 5.7 5.7 90 0 0 308.825 161.3 A 6.5 6.5 90 0 0 308.525 161.2 Q 307.625 160.7 306.725 160.5 Q 305.725 160.2 304.725 160.2 Q 302.825 160.2 301.625 161 Q 300.525 161.8 300.425 163.2 A 3.4 3.4 90 0 0 300.425 163.3 A 3 3 90 0 0 300.525 164.3 A 2.3 2.3 90 0 0 301.625 165.6 Q 302.625 166.2 304.725 166.7 A 30.5 30.5 90 0 0 305.325 166.9 Q 308.525 167.6 309.925 168.9 Q 311.325 170.1 311.325 172.2 A 5.3 5.3 90 0 1 311.025 173.7 A 4.5 4.5 90 0 1 310.425 175 A 5.2 5.2 90 0 1 308.925 176.5 A 6.6 6.6 90 0 1 308.025 176.9 Q 306.525 177.6 304.425 177.6 Q 302.525 177.6 300.725 176.9 Q 298.925 176.3 297.825 175.2 Z" />
        <path fill="#191919"
            d="M 538.425 175.2 L 539.525 173.4 A 7.3 7.3 90 0 0 541.825 175 A 8.4 8.4 90 0 0 542.025 175 Q 543.525 175.6 545.125 175.6 Q 547.225 175.6 548.525 174.8 Q 549.825 173.9 549.825 172.4 A 3.2 3.2 90 0 0 549.625 171.5 A 2.3 2.3 90 0 0 548.725 170.2 A 5.2 5.2 90 0 0 548.025 169.8 Q 547.325 169.4 546.125 169 A 31.2 31.2 90 0 0 544.825 168.7 Q 542.025 168 540.725 167 A 5.2 5.2 90 0 1 540.325 166.7 A 3.9 3.9 90 0 1 539.025 164.3 A 5.6 5.6 90 0 1 538.925 163.4 Q 538.925 162 539.725 160.8 A 5.4 5.4 90 0 1 541.425 159.2 A 6.7 6.7 90 0 1 542.025 158.9 A 7.1 7.1 90 0 1 544.025 158.4 A 9.2 9.2 90 0 1 545.325 158.3 Q 547.225 158.3 548.825 158.8 A 8.2 8.2 90 0 1 551.425 160.3 A 7.9 7.9 90 0 1 551.625 160.4 L 550.525 162.3 A 5.7 5.7 90 0 0 549.425 161.3 A 6.5 6.5 90 0 0 549.025 161.2 Q 548.225 160.7 547.325 160.5 Q 546.325 160.2 545.325 160.2 Q 543.425 160.2 542.225 161 Q 541.025 161.8 541.025 163.2 A 3.4 3.4 90 0 0 541.025 163.3 A 3 3 90 0 0 541.125 164.3 A 2.3 2.3 90 0 0 542.225 165.6 Q 543.225 166.2 545.325 166.7 A 30.5 30.5 90 0 0 545.925 166.9 Q 549.025 167.6 550.425 168.9 Q 551.925 170.1 551.925 172.2 A 5.3 5.3 90 0 1 551.625 173.7 A 4.5 4.5 90 0 1 551.025 175 A 5.2 5.2 90 0 1 549.425 176.5 A 6.6 6.6 90 0 1 548.625 176.9 Q 547.125 177.6 545.025 177.6 Q 543.125 177.6 541.325 176.9 Q 539.525 176.3 538.425 175.2 Z" />
        <path fill="#191919"
            d="M 332.525 168.2 L 317.225 168.2 A 9.6 9.6 90 0 0 317.225 168.7 Q 317.225 170.6 318.025 172 Q 318.925 173.7 320.625 174.6 A 7.6 7.6 90 0 0 322.725 175.3 A 10.5 10.5 90 0 0 324.725 175.5 Q 326.225 175.5 327.625 175 A 7.3 7.3 90 0 0 329.325 174.2 A 6.4 6.4 90 0 0 330.025 173.5 L 331.325 175.3 Q 330.325 176.1 329.225 176.6 Q 328.125 177.1 326.925 177.3 Q 325.625 177.6 324.525 177.6 A 11.3 11.3 90 0 1 321.725 177.3 A 9.2 9.2 90 0 1 319.525 176.4 Q 317.325 175.2 316.125 173.1 A 9.2 9.2 90 0 1 315.025 169.7 A 11.8 11.8 90 0 1 314.925 168.1 A 10.8 10.8 90 0 1 315.225 165.4 A 9.6 9.6 90 0 1 315.625 164.3 Q 316.325 162.5 317.625 161.2 Q 318.825 159.9 320.525 159.1 A 9 9 90 0 1 323.625 158.4 A 10.5 10.5 90 0 1 324.125 158.4 A 10 10 90 0 1 326.225 158.6 A 8 8 90 0 1 327.825 159.2 Q 329.525 159.9 330.625 161.3 Q 331.725 162.6 332.225 164.4 A 9.6 9.6 90 0 1 332.525 166.7 Q 332.625 166.9 332.625 167.1 A 12 12 90 0 1 332.525 168.2 Z M 317.325 166.3 L 330.225 166.3 Q 330.125 163.9 329.025 162.5 A 5 5 90 0 0 328.625 162 Q 327.025 160.5 324.125 160.5 A 8.6 8.6 90 0 0 322.025 160.7 A 6.4 6.4 90 0 0 319.425 162 A 5.9 5.9 90 0 0 317.625 165 A 8.2 8.2 90 0 0 317.325 166.3 Z" />
        <path fill="#191919"
            d="M 455.025 168.2 L 439.725 168.2 A 9.6 9.6 90 0 0 439.725 168.7 Q 439.725 170.6 440.525 172 Q 441.425 173.7 443.125 174.6 A 7.6 7.6 90 0 0 445.325 175.3 A 10.5 10.5 90 0 0 447.225 175.5 Q 448.725 175.5 450.125 175 A 7.3 7.3 90 0 0 451.825 174.2 A 6.4 6.4 90 0 0 452.525 173.5 L 453.825 175.3 Q 452.925 176.1 451.725 176.6 Q 450.625 177.1 449.325 177.3 Q 448.125 177.6 446.925 177.6 A 11.3 11.3 90 0 1 444.225 177.3 A 9.2 9.2 90 0 1 442.025 176.4 Q 439.825 175.2 438.625 173.1 A 9.2 9.2 90 0 1 437.525 169.7 A 11.8 11.8 90 0 1 437.425 168.1 A 10.8 10.8 90 0 1 437.725 165.4 A 9.6 9.6 90 0 1 438.125 164.3 Q 438.825 162.5 440.025 161.2 Q 441.325 159.9 443.025 159.1 A 9 9 90 0 1 446.225 158.4 A 10.5 10.5 90 0 1 446.625 158.4 A 10 10 90 0 1 448.725 158.6 A 8 8 90 0 1 450.425 159.2 Q 452.025 159.9 453.125 161.3 Q 454.225 162.6 454.725 164.4 A 9.6 9.6 90 0 1 455.025 166.7 Q 455.025 166.9 455.025 167.1 A 12 12 90 0 1 455.025 168.2 Z M 439.825 166.3 L 452.725 166.3 Q 452.625 163.9 451.525 162.5 A 5 5 90 0 0 451.125 162 Q 449.525 160.5 446.625 160.5 A 8.6 8.6 90 0 0 444.525 160.7 A 6.4 6.4 90 0 0 441.925 162 A 5.9 5.9 90 0 0 440.025 165 A 8.2 8.2 90 0 0 439.825 166.3 Z" />
        <path fill="#191919"
            d="M 534.925 168.2 L 519.725 168.2 A 9.6 9.6 90 0 0 519.725 168.7 Q 519.725 170.6 520.425 172 Q 521.325 173.7 523.125 174.6 A 7.6 7.6 90 0 0 525.225 175.3 A 10.5 10.5 90 0 0 527.225 175.5 Q 528.725 175.5 530.125 175 A 7.3 7.3 90 0 0 531.825 174.2 A 6.4 6.4 90 0 0 532.525 173.5 L 533.725 175.3 Q 532.825 176.1 531.725 176.6 Q 530.525 177.1 529.325 177.3 Q 528.125 177.6 526.925 177.6 A 11.3 11.3 90 0 1 524.225 177.3 A 9.2 9.2 90 0 1 521.925 176.4 Q 519.825 175.2 518.625 173.1 A 9.2 9.2 90 0 1 517.525 169.7 A 11.8 11.8 90 0 1 517.425 168.1 A 10.8 10.8 90 0 1 517.725 165.4 A 9.6 9.6 90 0 1 518.125 164.3 Q 518.825 162.5 520.025 161.2 Q 521.325 159.9 522.925 159.1 A 9 9 90 0 1 526.125 158.4 A 10.5 10.5 90 0 1 526.625 158.4 A 10 10 90 0 1 528.725 158.6 A 8 8 90 0 1 530.325 159.2 Q 531.925 159.9 533.025 161.3 Q 534.125 162.6 534.725 164.4 A 9.6 9.6 90 0 1 535.025 166.7 Q 535.025 166.9 535.025 167.1 A 12 12 90 0 1 534.925 168.2 Z M 519.825 166.3 L 532.725 166.3 Q 532.625 163.9 531.525 162.5 A 5 5 90 0 0 531.025 162 Q 529.525 160.5 526.625 160.5 A 8.6 8.6 90 0 0 524.425 160.7 A 6.4 6.4 90 0 0 521.925 162 A 5.9 5.9 90 0 0 520.025 165 A 8.2 8.2 90 0 0 519.825 166.3 Z" />
        <path fill="#191919"
            d="M 514.325 160.1 L 513.025 161.9 A 5.3 5.3 90 0 0 511.725 161.1 A 6.5 6.5 90 0 0 511.025 160.8 Q 509.925 160.5 508.625 160.5 A 10 10 90 0 0 506.625 160.6 A 7.4 7.4 90 0 0 504.625 161.4 Q 502.925 162.2 502.025 163.9 A 7.2 7.2 90 0 0 501.225 166 Q 501.025 166.9 501.025 167.9 A 12 12 90 0 0 501.025 168 A 10 10 90 0 0 501.325 170.3 A 6.6 6.6 90 0 0 503.125 173.5 Q 505.125 175.5 508.525 175.5 A 7.2 7.2 90 0 0 510.825 175.2 A 6.7 6.7 90 0 0 511.325 175 Q 512.525 174.5 513.225 173.7 L 514.725 175.3 Q 513.325 176.4 511.725 177 Q 510.225 177.6 508.425 177.6 A 10.9 10.9 90 0 1 505.625 177.2 A 9.1 9.1 90 0 1 503.425 176.3 Q 501.325 175 500.025 172.9 A 9.4 9.4 90 0 1 498.825 169.1 A 11.6 11.6 90 0 1 498.825 168 Q 498.825 165.9 499.525 164.2 Q 500.325 162.4 501.625 161.1 Q 503.025 159.9 504.825 159.1 A 10.5 10.5 90 0 1 507.825 158.5 A 12.6 12.6 90 0 1 508.725 158.4 A 11.3 11.3 90 0 1 510.525 158.6 A 9.2 9.2 90 0 1 511.725 158.9 A 8.3 8.3 90 0 1 514.225 160.1 A 9.3 9.3 90 0 1 514.325 160.1 Z" />
        <path fill="#191919"
            d="M 480.925 177 L 478.625 177 L 471.525 159 L 473.925 159 L 480.125 175.2 L 479.625 175.2 L 485.725 159 L 488.025 159 L 480.925 177 Z" />
        <path fill="#191919"
            d="M 391.125 169.5 L 391.825 170.8 A 11.1 11.1 90 0 0 390.725 170.9 Q 390.125 170.9 389.625 171 A 5.7 5.7 90 0 0 388.925 171.3 Q 388.625 171.4 388.425 171.5 A 2.7 2.7 90 0 0 388.025 171.8 A 1.7 1.7 90 0 0 387.725 172.1 A 1.2 1.2 90 0 0 387.525 172.8 A 1.2 1.2 90 0 0 387.625 173.4 Q 387.725 173.6 388.025 173.8 A 1.9 1.9 90 0 0 388.425 174 Q 389.125 174.2 390.125 174.3 A 14.6 14.6 90 0 0 390.725 174.4 L 393.825 174.6 A 20 20 90 0 1 395.425 174.8 Q 396.725 175 397.725 175.3 A 7 7 90 0 1 398.825 175.8 Q 399.425 176.2 399.825 176.6 A 4 4 90 0 1 400.125 176.9 Q 400.925 177.9 400.925 179.4 Q 400.925 180.7 400.225 181.8 A 5.8 5.8 90 0 1 399.125 183.1 A 7.4 7.4 90 0 1 398.325 183.7 A 9.1 9.1 90 0 1 396.725 184.5 A 12.1 12.1 90 0 1 395.325 185 A 13.6 13.6 90 0 1 393.125 185.4 A 17.3 17.3 90 0 1 391.425 185.4 A 18.8 18.8 90 0 1 389.625 185.4 A 13.8 13.8 90 0 1 387.825 185.1 A 11 11 90 0 1 386.525 184.7 Q 385.725 184.4 385.225 184 A 6.8 6.8 90 0 1 385.125 184 A 5.7 5.7 90 0 1 384.125 183.2 A 4.5 4.5 90 0 1 383.425 182.3 A 4.1 4.1 90 0 1 382.825 180.2 A 4.9 4.9 90 0 1 382.825 180.2 Q 382.825 179.1 383.325 178.3 Q 383.925 177.5 384.925 176.8 A 7.3 7.3 90 0 1 384.925 176.8 A 6.9 6.9 90 0 1 386.025 176.4 Q 386.725 176.1 387.625 175.9 A 7 7 90 0 1 386.925 175.5 Q 386.225 175.2 385.925 174.8 Q 385.325 174.1 385.325 173.3 Q 385.325 172.5 385.725 171.9 A 3.3 3.3 90 0 1 386.225 171.3 Q 386.525 171.1 386.925 170.9 Q 387.625 170.4 388.625 170.1 A 10.5 10.5 90 0 1 388.725 170 A 11.4 11.4 90 0 1 390.025 169.7 A 14.6 14.6 90 0 1 391.125 169.5 Z M 393.125 176.8 L 389.925 176.5 A 10.5 10.5 90 0 0 388.725 176.7 Q 388.025 176.8 387.325 177.1 A 5 5 90 0 0 386.625 177.5 Q 386.125 177.8 385.825 178.2 A 3 3 90 0 0 385.725 178.2 Q 385.125 179 385.125 179.9 Q 385.125 181 385.925 181.8 A 4.1 4.1 90 0 0 386.825 182.5 Q 387.325 182.9 388.125 183.1 A 8.5 8.5 90 0 0 389.525 183.5 Q 390.325 183.6 391.425 183.6 A 16.9 16.9 90 0 0 393.425 183.5 Q 395.425 183.3 396.725 182.5 A 5.1 5.1 90 0 0 397.625 181.8 Q 398.125 181.4 398.425 180.8 A 2.7 2.7 90 0 0 398.625 179.7 Q 398.625 178.4 397.225 177.7 Q 395.925 177 393.125 176.8 Z" />
        <path fill="#191919" d="M 402.125 160.9 L 394.425 160.9 L 393.625 159.2 L 402.125 159 L 402.125 160.9 Z" />
        <path fill="#191919"
            d="M 241.925 177.6 Q 239.225 177.6 237.025 176.3 Q 234.925 174.9 233.625 172.8 Q 232.425 170.6 232.425 168 Q 232.425 166 233.125 164.3 Q 233.825 162.6 235.125 161.3 Q 236.425 159.9 238.125 159.2 A 9.1 9.1 90 0 1 241.225 158.4 A 10.8 10.8 90 0 1 241.925 158.4 Q 244.625 158.4 246.825 159.8 Q 248.925 161 250.125 163.2 Q 251.425 165.4 251.425 168 Q 251.425 170 250.725 171.7 Q 249.925 173.4 248.725 174.8 Q 247.425 176.1 245.725 176.8 A 9.3 9.3 90 0 1 242.425 177.6 A 10.8 10.8 90 0 1 241.925 177.6 Z M 241.925 175.5 A 8.2 8.2 90 0 0 244.025 175.3 A 6.8 6.8 90 0 0 245.625 174.6 Q 247.325 173.7 248.225 172 A 7.4 7.4 90 0 0 249.025 169.7 A 9.9 9.9 90 0 0 249.125 168 A 9.6 9.6 90 0 0 248.925 166 A 7.3 7.3 90 0 0 248.225 164 Q 247.325 162.3 245.625 161.4 A 7.1 7.1 90 0 0 242.925 160.5 A 9 9 90 0 0 241.925 160.5 Q 239.825 160.5 238.125 161.4 Q 236.525 162.3 235.625 164 A 7.4 7.4 90 0 0 234.825 166.4 A 9.9 9.9 90 0 0 234.725 168 Q 234.725 170.3 235.625 172 Q 236.525 173.7 238.125 174.6 A 7.1 7.1 90 0 0 240.925 175.5 A 8.9 8.9 90 0 0 241.925 175.5 Z" />
        <path fill="#191919"
            d="M 461.825 177 L 459.725 177 L 459.725 159 L 461.825 159 L 461.825 161.9 A 9.4 9.4 90 0 1 462.825 160.6 Q 463.425 159.9 464.025 159.5 A 5.1 5.1 90 0 1 464.625 159.2 Q 466.225 158.4 468.025 158.4 A 13.8 13.8 90 0 1 468.925 158.5 A 15 15 90 0 1 469.025 158.5 A 6.2 6.2 90 0 1 469.825 158.6 A 5.6 5.6 90 0 1 470.025 158.6 L 469.625 160.8 Q 469.125 160.7 468.725 160.6 Q 468.225 160.6 467.825 160.6 A 6.7 6.7 90 0 0 465.725 160.9 A 5.5 5.5 90 0 0 463.525 162.3 Q 461.825 163.9 461.825 166.5 L 461.825 177 Z" />
        <path fill="#191919" d="M 339.325 177 L 337.325 177 L 337.325 150 L 339.325 150 L 339.325 177 Z" />
        <path fill="#191919" d="M 347.825 177 L 345.725 177 L 345.725 150 L 347.825 150 L 347.825 177 Z" />
        <path fill="#191919" fill-rule="evenodd"
            d="M 388.825 170.9 A 9.1 9.1 90 0 0 391.425 171.2 A 10.1 10.1 90 0 0 392.125 171.1 A 8.5 8.5 90 0 0 395.325 170.3 Q 397.025 169.5 398.125 168 Q 399.125 166.6 399.125 164.8 Q 399.125 163 398.125 161.6 Q 397.025 160.2 395.325 159.3 A 8.1 8.1 90 0 0 394.025 158.8 A 9.1 9.1 90 0 0 391.425 158.4 A 10.1 10.1 90 0 0 390.825 158.5 A 8.5 8.5 90 0 0 387.625 159.3 Q 385.825 160.2 384.825 161.6 Q 383.825 163 383.825 164.8 Q 383.825 166.6 384.825 168 Q 385.825 169.5 387.625 170.3 A 8.1 8.1 90 0 0 388.825 170.9 Z M 391.425 169.2 A 7.9 7.9 90 0 0 392.825 169 A 5.9 5.9 90 0 0 394.225 168.6 A 4.7 4.7 90 0 0 395.425 167.9 A 4.1 4.1 90 0 0 396.125 167.1 A 3.9 3.9 90 0 0 396.725 165.1 A 4.8 4.8 90 0 0 396.825 164.8 A 4.2 4.2 90 0 0 396.525 163.2 A 3.9 3.9 90 0 0 395.325 161.7 Q 393.925 160.5 391.725 160.5 A 9.3 9.3 90 0 0 391.425 160.5 A 7.8 7.8 90 0 0 390.025 160.6 A 5.8 5.8 90 0 0 388.625 161 A 4.9 4.9 90 0 0 387.525 161.7 A 4.1 4.1 90 0 0 386.825 162.6 A 3.8 3.8 90 0 0 386.125 164.4 A 4.8 4.8 90 0 0 386.125 164.8 A 4.1 4.1 90 0 0 386.425 166.5 A 4 4 90 0 0 387.625 168 Q 389.025 169.2 391.425 169.2 Z" />
        <path fill="#191919" d="M 356.325 177 L 354.225 177 L 354.225 159 L 356.325 159 L 356.325 177 Z" />
        <path fill="#191919" d="M 494.125 177 L 492.025 177 L 492.025 159 L 494.125 159 L 494.125 177 Z" />
        <path fill="#191919"
            d="M 354.025 154.7 A 1.7 1.7 90 0 0 355.325 155.2 A 2.1 2.1 90 0 0 355.325 155.2 A 1.7 1.7 90 0 0 356.525 154.7 A 2 2 90 0 0 356.525 154.7 A 1.7 1.7 90 0 0 357.025 153.4 A 2.1 2.1 90 0 0 357.025 153.4 A 1.7 1.7 90 0 0 356.525 152.2 A 2 2 90 0 0 356.525 152.2 A 1.7 1.7 90 0 0 355.325 151.7 A 2.1 2.1 90 0 0 355.225 151.7 A 1.7 1.7 90 0 0 354.025 152.2 A 2 2 90 0 0 354.025 152.2 A 1.7 1.7 90 0 0 353.525 153.4 A 2.1 2.1 90 0 0 353.525 153.5 A 1.7 1.7 90 0 0 354.025 154.7 A 2 2 90 0 0 354.025 154.7 Z" />
        <path fill="#191919"
            d="M 491.825 154.7 A 1.7 1.7 90 0 0 493.125 155.2 A 2.1 2.1 90 0 0 493.125 155.2 A 1.7 1.7 90 0 0 494.325 154.7 A 2 2 90 0 0 494.325 154.7 A 1.7 1.7 90 0 0 494.825 153.4 A 2.1 2.1 90 0 0 494.825 153.4 A 1.7 1.7 90 0 0 494.325 152.2 A 2 2 90 0 0 494.325 152.2 A 1.7 1.7 90 0 0 493.125 151.7 A 2.1 2.1 90 0 0 493.025 151.7 A 1.7 1.7 90 0 0 491.825 152.2 A 2 2 90 0 0 491.825 152.2 A 1.7 1.7 90 0 0 491.325 153.4 A 2.1 2.1 90 0 0 491.325 153.5 A 1.7 1.7 90 0 0 491.825 154.7 A 2 2 90 0 0 491.825 154.7 Z" />
    </g>
</svg>