<svg xmlns="http://www.w3.org/2000/svg" viewBox="0 0 24 24">
	<g>
		<path stroke="#b667f6" stroke-width="1" fill="none" stroke-linecap="round"
			d="M 8 18.7 C 6.3 20.1 4.8 21 2 21 c 1 -1 2.3 -2.4 2.8 -4.4 C 3.1 15.1 2 13.2 2 11 c 0 -4.4 4.5 -8 10 -8 c 5.1 0 9.3 3.1 9.9 7" />
		<path fill="#b667f6"
			d="M 16 19.9 c -3.3 0 -6 -2 -6 -4.4 C 10 13 12.7 11 16 11 s 6 2 6 4.4 c 0 1.2 -0.6 2.3 -1.7 3.1 c 0.3 1.2 1.1 1.9 1.7 2.5 c -1.8 0 -2.7 -0.5 -3.8 -1.4 c -0.7 0.2 -1.4 0.3 -2.2 0.3 z" />
	</g>
</svg>